<?xml version="1.0" encoding="utf-8"?>
<!-- Generator: Adobe Illustrator 18.1.0, SVG Export Plug-In . SVG Version: 6.00 Build 0)  -->
<!DOCTYPE svg PUBLIC "-//W3C//DTD SVG 1.1//EN" "http://www.w3.org/Graphics/SVG/1.1/DTD/svg11.dtd">
<svg version="1.1" id="Layer_1" xmlns="http://www.w3.org/2000/svg" xmlns:xlink="http://www.w3.org/1999/xlink" x="0px" y="0px"
	 width="396.3px" height="229.1px" viewBox="-397 728 396.3 229.1" enable-background="new -397 728 396.3 229.1"
	 xml:space="preserve">
<g>
	<path fill="#231F20" d="M-7.3,842.8c-4.6,1-8.7,3.4-12.7,5.7c-3.5,2.1-4.7,1.1-5.8-2.4c-3.4-11.4-10.5-21.1-15.2-31.9
		c-1.6-3.8-9-5.9-12.8-4.3c-4.9,2-2.5,5.7-2,8.9c0.9,5.4-4.8,18.2-9.4,19.3c-4,0.9-6.3,2.8-6.5,6.2c-0.4,5.4-3.4,9.3-6,13.4
		c-4.8,7.4-12.4,10.8-21,9.2c-9.1-1.7-14.8-7.9-13.9-15.4c1.1-9.1,5.2-16.8,11.4-23.4c1.8-1.9,4-3.4,6.6-4.4c2-0.7,3.7-0.5,5.1,0.9
		c1.3,1.4,0.1,2.8-0.5,4.1c-0.9,2-1.9,3.8-2.1,6.1c-0.4,3.9,2.9,4.4,5.1,5.9c1.7,1.1,3.2,1.2,4.9-0.4c4.9-4.8,7.3-14,4.9-19.8
		c-2.4-5.9-8.4-9-16.5-8.7c-14,0.6-27.6,12.5-32.1,28.7c-1.9,6.8-5.5,12.4-9.3,18c-1.7,2.5-3.9,4.5-6.9,5.6s-4.2,0.9-3.5-2.9
		c1.4-8.2,4-16.1,7-23.9c2.1-5.5,3.7-11.1,4.3-16.9c0.4-4.2-2.4-8.5-6-9.3c-4.4-1-6.2,1.9-7.8,5.3c-4.5,9.5-8.7,19.2-10.5,29.5
		c-1.7,9.8-8,15.9-15.1,21.3c-5.7,4.3-10.9,1.3-11.2-5.8c-0.1-1.8,0.4-3.6,0.8-5.4c3.1-14,7.6-27.5,12.1-41.1
		c0.8-2.3,1.9-3.1,4.1-3.5c6.6-1,13.1-2.3,19.8-2.6c4.4-0.2,6.2-3.9,3.7-7.6c-1.9-2.8-4.8-4.1-8.1-4.3c-2.7-0.1-5.3,0-8,0.1
		c-5.7,0.3-5.8,0.3-4.1-5c1.7-5.7,2.6-11.4,1.5-17.3c-0.8-4.2-3.2-7.4-7.8-7.9c-4.4-0.5-6.7,2.4-8.2,5.9c-0.9,2.1-1.7,4.4-2.2,6.6
		c-1.3,6.1-4,11.6-6,17.4c-0.8,2.2-2,3-4.3,3.2c-5.3,0.4-10.6,1-15.9,1.6c-3.9,0.5-8,1.3-8.5,6.1c-0.5,4.9,3.6,6.8,7.2,8.5
		c3.2,1.5,6.5,0.7,9.9,0.4c1.6-0.1,3.1-1.3,4.8-0.4c-6,29.5-9.2,30.4-22.5,42c-0.6-2.4-0.1-4.6,0.2-6.9c1.1-7.6,2.2-15.2,3.6-22.7
		c1-5.1-2.9-6.9-6-8.5c-3.5-1.8-4.8,1.6-6.1,4.1c-2.7,5.3-5.3,10.7-8,16.1c-3.1,6.3-6.3,12.5-10.6,18c-3.4,4.4-11.1,7.4-14.6,5.3
		c-4.7-2.9-3.9-7.9-3.4-12.5c0-0.5,0.2-1,0.3-1.5c1.7-12.3,5.5-24,9.7-35.5c1.1-3,1.5-6.1-1.5-8.1c-3.1-2.1-6.3-1.6-9.3,0.6
		c-2.7,2-4.7,4.7-6.4,7.6c-7.8,13.7-10.5,28.6-10,44.2c0.1,3-0.9,4.4-3.6,5.5c-8.8,3.6-23.6-0.5-29-8.1c-1.2-1.7-0.1-2.8,0.5-4.1
		c8.6-17.8,14.2-36.5,16.1-56.3c0.3-3.4,1.9-4.8,5.4-5c5.5-0.3,11-0.8,16.4-1.8c14.6-2.8,27.5-9.2,37.2-20.7
		c6-7.1,8.3-15.4,3.5-24.1c-5-8-12.7-11.7-22.4-10.8c-13.7,1.2-25.3,6.6-34.3,17.2c-5.8,6.9-11.3,13.9-15.2,22.2
		c-1.2,2.5-2.3,5.1-6,5.1c-9.1,0.2-17.5-1.7-24.9-7.2c-1.9-1.4-3.3-2.8-3.9-4.7V759h-4.3c-0.6-0.2-1-0.6-1.2-1.2v-3.3V753v-2.8h-3
		h-3.7h-2.1v1.9v3.9v3h-6.7v0.1v4.2v2.8h2.2c1,1,2.1,1.9,3,2.9v4.3h4c2,0.6,3.2,2.6,4.7,4c7.5,6.9,16.2,11.6,26.2,13.6
		c3.4,0.7,8.9,0,9.8,1.8c1.3,2.7-0.4,7-1,10.6c-2.6,13.4-5.3,26.8-11.2,39.2c-2.9,6-4.4,6.5-9.9,3c-8.6-5.4-17.8-9.8-27.5-12.9
		c-5.3-1.7-10.6-2.9-16.2-2.5c-13.5,1-22,9.2-21.1,21c0.6,8,3.6,15.2,10.1,19.9c18.9,13.6,42.2,18.9,61.4,0.3c3.4-3.3,5.6-3.1,9.4,0
		c11.5,9.3,24.5,13.3,39.1,8.3c3-1,5.1-2,8,0.4c3.1,2.5,7.1,2.4,11,1.3c7.8-2.2,13.8-7.1,19.6-12.5c1-0.9,1.9-1.9,2.8-2.8
		c1-0.9,2-1.8,3.2-2.9c-1,10.2-5.4,18-12.1,25.1c-8.5,9-15.7,19-22,29.6c-2.5,4.2-4.6,8.4-5.8,13.2c-2.4,9.8,1.4,17.8,10.9,22.6
		c8.7,4.4,16.7,2.6,23.1-5.2c4.4-5.3,7.1-11.6,9.2-18.1c3.9-11.8,4.1-24.3,6-36.4c0.8-4.7,0.6-9.9,4.3-13.6
		c6.2-6.2,12.8-12,19.3-18.1c6.6,24.9,32.2,22.9,41.8,7.2c4.9,4.8,10,9.6,17.5,8.5c7.1-1,11.2-6.8,15.8-11.7
		c5.1,7.6,8.7,11.1,14.9,13.1c14.5,4.5,28,3.4,39.3-8c2.3-2.4,3.4-2.5,5.5,0.2c4.9,6.2,11.7,9.2,19.4,10.2
		c10.3,1.4,18.5-2.7,21.3-11.6c1.7-5.5,4.7-8.6,10.1-10.4c5.4-1.8,10.3-4.9,12.5-10.7C0.2,844.6-2.4,841.8-7.3,842.8z M-257.3,747
		c4.5-1.7,9.5-2.9,13.7,0.8c2.3,2,0,8.5-4.6,13.2c-10.5,10.9-24.2,13.8-39.7,15.6C-280.4,762.7-271.3,752.2-257.3,747z
		 M-352.8,764.2v-0.4v-4.5v-0.1l0,0l0,0l0,0h0.1h4.7v5.1L-352.8,764.2L-352.8,764.2z M-337.8,863c-5.7,4.2-12.3,4.7-17,4.9
		c-11.5,0.3-19.6-2.9-25.6-10.6c-2.1-2.7-3.6-5.7-1.8-9.2c1.8-3.5,5-4.1,8.5-4c7.9,0.1,14.9,3.1,21.9,6.2c4.7,2.1,9.1,4.8,13.8,7
		C-333.8,859.2-335,861-337.8,863z M-243.5,928.6c-1.8,5.3-5.3,9.1-10.7,11c-1.7,0.6-3.7,1.2-5.1-0.3c-1.3-1.4-0.5-3.1,0-4.7
		c3.4-10.1,9.7-18.4,15.8-26.9c1.5-2.1,3.2-4.1,4.8-6.2C-239.5,910.9-240.5,920-243.5,928.6z M-48.3,838.3c1-1.4,1.6-1.6,3-0.2
		c2.6,2.8,7.2,11.2,8.1,15.6c-2.2,0.7-4.3,0.1-6.3-0.5C-53.5,850.8-55.7,848.9-48.3,838.3z M-36.4,867.3c-0.2,1.6-1.2,2.6-2.7,3.2
		c-3.8,1.5-11.8-1.1-14.2-4.8c-1-1.5-1.9-3-2-5.5c5.9,2.9,11,6,17.3,5.9C-37.4,866.1-36.2,866.1-36.4,867.3z"/>
	<path fill="#231F20" d="M-135.2,801.1c7.6-1.7,12.1-7.3,12.1-16.6c-0.1-0.6-0.2-2.3-0.7-3.8c-1.3-4-4.2-5-7.1-1.9
		c-4.8,5.3-7.5,11.7-8.7,18.7C-139.9,800.6-138.4,801.8-135.2,801.1z"/>
	<path fill="#231F20" d="M-362.9,759.1h2.8V759l0,0c0-0.8,0-1.6,0-2.3v-1.4c0-0.3,0-0.5,0-0.8V753h-6.1v6.1h2.3
		C-363.6,759.1-363.2,759.1-362.9,759.1z"/>
	<path fill="#231F20" d="M-360,759.1L-360,759.1c0.1,0,0.1-0.1,0.1-0.1L-360,759.1C-360,759-360,759-360,759.1L-360,759.1z"/>
	<polygon fill="#231F20" points="-370.2,729.6 -370.2,727 -376.1,727 -376.1,733 -370.2,733 	"/>
	<polygon fill="#231F20" points="-356.7,745.2 -355.1,745.2 -355.1,738.2 -362.2,738.2 -362.2,745.2 -357.6,745.2 	"/>
	<polygon fill="#231F20" points="-368.6,746.1 -368.6,743.5 -368.6,741 -376.9,741 -376.9,749.3 -368.6,749.3 	"/>
</g>
</svg>
