<?xml version="1.0" encoding="utf-8"?>
<!-- Generator: Adobe Illustrator 16.0.0, SVG Export Plug-In . SVG Version: 6.00 Build 0)  -->
<!DOCTYPE svg PUBLIC "-//W3C//DTD SVG 1.1//EN" "http://www.w3.org/Graphics/SVG/1.1/DTD/svg11.dtd">
<svg version="1.1" id="Layer_1" xmlns="http://www.w3.org/2000/svg" xmlns:xlink="http://www.w3.org/1999/xlink" x="0px" y="0px"
	 width="886.828px" height="257.349px" viewBox="0 0 886.828 257.349" enable-background="new 0 0 886.828 257.349"
	 xml:space="preserve">
<g>
	<g>
		<path fill="#FFFFFF" d="M286.03,70.935c1.996-5.218-0.606-11.071-5.814-13.072c-5.209-2.001-11.048,0.608-13.045,5.826
			l-23.363,61.055l-23.358-61.055c-1.996-5.218-7.836-7.826-13.045-5.827c-5.207,2-7.811,7.854-5.814,13.072l31.4,82.078
			c0,0-6.396,16.723-6.438,16.845c-2.237,6.026-8.026,10.064-14.459,10.064h-1.074c-5.577,0-10.099,4.53-10.099,10.119
			s4.521,10.119,10.099,10.119h1.074c14.984,0,28.457-9.49,33.525-23.617c0.001-0.004,0.003-0.008,0.004-0.014L286.03,70.935z"/>
		<path fill="#FFFFFF" d="M515.103,200.159c-5.59,0-10.121-4.53-10.121-10.119V67.309c0-5.589,4.531-10.12,10.121-10.12
			c5.588,0,10.119,4.531,10.119,10.12V190.04C525.222,195.629,520.691,200.159,515.103,200.159z"/>
		<path fill="#FFFFFF" d="M636.607,200.159c-9.543,0-18.513-3.711-25.26-10.448c-6.746-6.738-10.461-15.698-10.46-25.229
			l-0.002-71.618c0-9.53,3.716-18.488,10.462-25.226c6.746-6.736,15.717-10.447,25.257-10.447h0.004l14.341-0.002
			c9.543,0,18.514,3.711,25.259,10.449c6.746,6.739,10.461,15.698,10.46,25.229c0,5.588-4.537,10.119-10.133,10.119l0,0
			c-5.598-0.001-10.134-4.532-10.133-10.122c0-4.123-1.606-8-4.525-10.915c-2.918-2.915-6.799-4.52-10.926-4.52l-14.342,0.002
			h-0.002c-4.131,0-8.012,1.605-10.93,4.519c-2.919,2.915-4.526,6.79-4.526,10.912l0.003,71.621c0,4.125,1.606,8.002,4.525,10.916
			c2.918,2.915,6.798,4.521,10.926,4.521l14.339-0.004h0.003c4.131,0,8.01-1.604,10.93-4.52c2.918-2.914,4.525-6.789,4.525-10.91
			c0-5.59,4.536-10.121,10.133-10.121c5.596,0,10.133,4.531,10.133,10.121c0,9.528-3.716,18.486-10.463,25.225
			c-6.746,6.735-15.715,10.445-25.255,10.445h-0.006L636.607,200.159z"/>
		<path fill="#FFFFFF" d="M93.669,200.159c-9.542,0-18.512-3.711-25.258-10.448c-6.746-6.739-10.461-15.699-10.46-25.229
			L57.949,67.31c0-5.589,4.536-10.121,10.132-10.121s10.133,4.531,10.133,10.12l0.003,97.175c0,4.125,1.606,8.002,4.525,10.916
			c2.918,2.914,6.799,4.52,10.926,4.52l39.929-0.002c5.596,0,10.133,4.53,10.133,10.119c0.001,5.59-4.535,10.121-10.132,10.121
			L93.669,200.159z"/>
		<path fill="#FFFFFF" d="M793.767,200.159h-14.041c-19.778,0-35.87-16.004-35.87-35.676c0-5.59,4.556-10.12,10.175-10.12
			c5.62,0,10.175,4.53,10.175,10.12c0,8.512,6.963,15.438,15.521,15.438h14.041c8.516,0,15.452-6.855,15.521-15.308
			c-0.001-0.056-0.002-0.11-0.001-0.165c-0.009-3.797-1.544-6.908-4.563-9.248c-0.014-0.012-0.028-0.022-0.043-0.033l-48.44-37.07
			c-7.937-6.161-12.329-15.047-12.383-25.042c-0.001-0.064-0.001-0.128-0.001-0.192c0-19.671,16.092-35.675,35.871-35.675h14.041
			c19.778,0,35.87,16.004,35.87,35.677c0,5.589-4.556,10.12-10.175,10.12c-5.62,0-10.176-4.531-10.176-10.12
			c0-8.512-6.962-15.437-15.52-15.437h-14.041c-8.516,0-15.452,6.855-15.521,15.307c0.001,0.053,0.001,0.105,0.001,0.158
			c0.007,3.8,1.541,6.914,4.562,9.255c0.015,0.011,0.028,0.023,0.044,0.034l44.026,33.612c0.038,0.027,4.419,3.461,4.419,3.461
			c7.934,6.161,12.323,15.047,12.378,25.038c0.001,0.064,0.001,0.128,0.001,0.192C829.638,184.156,813.546,200.159,793.767,200.159z
			"/>
		<path fill="#FFFFFF" d="M419.574,57.188H353.99c-5.578,0-10.099,4.531-10.099,10.12c0,5.59,4.521,10.12,10.099,10.12h22.692
			V190.04c0,5.589,4.522,10.119,10.1,10.119s10.099-4.53,10.099-10.119V77.429h22.692c5.578,0,10.1-4.53,10.1-10.12
			C429.673,61.719,425.152,57.188,419.574,57.188z"/>
		<g>
			<path fill="#FFFFFF" d="M5.219,200.159c-2.878,0-5.219-2.342-5.219-5.219c0-2.878,2.341-5.22,5.219-5.22
				c2.879,0,5.22,2.342,5.22,5.22C10.439,197.817,8.098,200.159,5.219,200.159z"/>
			<path fill="#FFFFFF" d="M38.931,190.718c-5.28,0-9.577-4.297-9.577-9.576c0-5.28,4.297-9.576,9.577-9.576
				c5.281,0,9.576,4.296,9.576,9.576C48.506,186.421,44.211,190.718,38.931,190.718z"/>
			<path fill="#FFFFFF" d="M57.949,150.251c-4.014,0-7.279-3.266-7.279-7.279c0-4.015,3.266-7.279,7.279-7.279
				c4.015,0,7.279,3.265,7.279,7.279C65.228,146.985,61.963,150.251,57.949,150.251z"/>
			<path fill="#FFFFFF" d="M86.189,75.335c-3.194,0-6.057,1.442-7.975,3.708l0.001,13.479c1.918,2.266,4.78,3.708,7.974,3.708
				c5.76,0,10.447-4.688,10.447-10.448C96.636,80.022,91.95,75.335,86.189,75.335z"/>
			<path fill="#FFFFFF" d="M100.926,75.674c-2.638,0-4.784-2.146-4.784-4.784c0-2.637,2.146-4.784,4.784-4.784
				c2.638,0,4.784,2.146,4.784,4.784C105.71,73.528,103.564,75.674,100.926,75.674z"/>
			<path fill="#FFFFFF" d="M114.784,35.874c-4.015,0-7.279-3.266-7.279-7.279c0-4.014,3.265-7.28,7.279-7.28
				c4.013,0,7.279,3.266,7.279,7.28C122.062,32.608,118.796,35.874,114.784,35.874z"/>
			<path fill="#FFFFFF" d="M137.722,11.311c-3.118,0-5.654-2.537-5.654-5.655c0-3.119,2.536-5.656,5.654-5.656
				c3.119,0,5.655,2.537,5.655,5.656C143.377,8.774,140.841,11.311,137.722,11.311z"/>
			<path fill="#FFFFFF" d="M157.888,17.034c-1.677,0-3.042-1.363-3.042-3.041c0-1.677,1.364-3.042,3.042-3.042
				c1.677,0,3.041,1.365,3.041,3.042C160.929,15.67,159.565,17.034,157.888,17.034z"/>
			<path fill="#FFFFFF" d="M171.971,36.864c-4.559,0-8.269-3.709-8.269-8.27c0-4.56,3.71-8.269,8.269-8.269
				c4.561,0,8.27,3.708,8.27,8.269C180.241,33.155,176.532,36.864,171.971,36.864z"/>
			<path fill="#FFFFFF" d="M175.679,62.409c-2.877,0-5.22-2.342-5.22-5.22c0-2.877,2.342-5.219,5.22-5.219
				c2.879,0,5.22,2.342,5.22,5.219C180.899,60.066,178.558,62.409,175.679,62.409z"/>
			<path fill="#FFFFFF" d="M171.972,89.535c-2.044,0-3.708-1.664-3.708-3.708s1.663-3.707,3.708-3.707
				c2.045,0,3.708,1.663,3.708,3.707S174.017,89.535,171.972,89.535z"/>
			<path fill="#FFFFFF" d="M176.32,128.084c0-2.397-1.95-4.349-4.348-4.349c-2.398,0-4.349,1.951-4.349,4.349
				c0,2.398,1.951,4.349,4.349,4.349C174.37,132.433,176.32,130.482,176.32,128.084z"/>
			<path fill="#FFFFFF" d="M171.972,148.19c-2.877,0-5.22-2.341-5.22-5.219s2.342-5.22,5.22-5.22c2.878,0,5.22,2.342,5.22,5.22
				S174.85,148.19,171.972,148.19z"/>
			<path fill="#FFFFFF" d="M171.971,192.241c-4.013,0-7.279-3.266-7.279-7.278c0-4.015,3.267-7.28,7.279-7.28
				c4.015,0,7.28,3.266,7.28,7.28C179.251,188.976,175.986,192.241,171.971,192.241z"/>
			<path fill="#FFFFFF" d="M180.677,228.754c-4.799,0-8.705-3.905-8.705-8.704c0-4.801,3.906-8.705,8.705-8.705
				c4.8,0,8.706,3.904,8.706,8.705C189.382,224.849,185.477,228.754,180.677,228.754z"/>
			<path fill="#FFFFFF" d="M204.914,253.001c0-2.398-1.951-4.348-4.348-4.348s-4.349,1.949-4.349,4.348s1.951,4.348,4.349,4.348
				S204.914,255.399,204.914,253.001z"/>
			<path fill="#FFFFFF" d="M221.326,244.422c-4.318,0-7.833-3.515-7.833-7.833c0-4.319,3.515-7.834,7.833-7.834
				c4.321,0,7.834,3.515,7.834,7.834C229.16,240.907,225.646,244.422,221.326,244.422z"/>
			<path fill="#FFFFFF" d="M229.161,207.558c-4.079,0-7.398-3.318-7.398-7.398c0-4.078,3.319-7.396,7.398-7.396
				s7.397,3.318,7.397,7.396C236.558,204.239,233.24,207.558,229.161,207.558z"/>
			<path fill="#FFFFFF" d="M243.811,176.35c-2.638,0-4.784-2.146-4.784-4.784c0-2.638,2.146-4.784,4.784-4.784
				s4.784,2.146,4.784,4.784C248.595,174.204,246.449,176.35,243.811,176.35z"/>
			<path fill="#FFFFFF" d="M257.754,91.006c-2.879,0-5.223-2.343-5.223-5.224c0-2.881,2.344-5.223,5.223-5.223
				c2.878,0,5.223,2.342,5.223,5.223C262.977,88.663,260.633,91.006,257.754,91.006z"/>
			<path fill="#FFFFFF" d="M268.042,61.94c2.098-3.363,5.987-5.182,9.888-4.66c0.001-0.031,0.005-0.061,0.005-0.091
				c0-3.359-2.731-6.091-6.091-6.091c-3.358,0-6.091,2.732-6.091,6.091C265.751,59.11,266.648,60.823,268.042,61.94z"/>
			<path fill="#FFFFFF" d="M292.013,85.741c-3.1,0-5.622-2.522-5.622-5.622c0-3.101,2.522-5.622,5.622-5.622
				c3.1,0,5.622,2.521,5.622,5.622C297.634,83.219,295.113,85.741,292.013,85.741z"/>
			<path fill="#FFFFFF" d="M300.555,114.286c-4.013,0-7.28-3.266-7.28-7.28c0-4.013,3.267-7.28,7.28-7.28
				c4.015,0,7.28,3.267,7.28,7.28C307.835,111.02,304.57,114.286,300.555,114.286z"/>
			<path fill="#FFFFFF" d="M300.245,134.329c-3.118,0-5.655-2.537-5.655-5.654c0-3.12,2.537-5.655,5.655-5.655
				c3.119,0,5.656,2.536,5.656,5.655C305.901,131.792,303.364,134.329,300.245,134.329z"/>
			<path fill="#FFFFFF" d="M301.061,162.847c-2.638,0-4.784-2.146-4.784-4.784s2.146-4.783,4.784-4.783s4.784,2.146,4.784,4.783
				S303.699,162.847,301.061,162.847z"/>
			<path fill="#FFFFFF" d="M305.802,209.3c-5.039,0-9.142-4.102-9.142-9.141s4.103-9.14,9.142-9.14c5.041,0,9.141,4.101,9.141,9.14
				S310.843,209.3,305.802,209.3z"/>
			<path fill="#FFFFFF" d="M338.719,219.62c-2.656,0-4.817-2.162-4.817-4.818s2.161-4.818,4.817-4.818
				c2.657,0,4.818,2.162,4.818,4.818S341.376,219.62,338.719,219.62z"/>
			<path fill="#FFFFFF" d="M363.858,200.159c-4.56,0-8.271-3.711-8.271-8.271c0-4.562,3.711-8.273,8.271-8.273
				c4.563,0,8.273,3.711,8.273,8.273C372.131,196.448,368.421,200.159,363.858,200.159z"/>
			<path fill="#FFFFFF" d="M386.782,147.696c-2.605,0-4.726-2.119-4.726-4.725c0-2.606,2.12-4.725,4.726-4.725
				s4.725,2.118,4.725,4.725C391.507,145.577,389.388,147.696,386.782,147.696z"/>
			<path fill="#FFFFFF" d="M393.446,114.377c-4.014,0-7.279-3.266-7.279-7.279c0-4.014,3.266-7.28,7.279-7.28
				c4.014,0,7.28,3.266,7.28,7.28C400.726,111.111,397.46,114.377,393.446,114.377z"/>
			<path fill="#FFFFFF" d="M429.321,47.192c-5.512,0-9.996,4.484-9.996,9.996h0.249c5.534,0,10.025,4.46,10.097,9.988
				c5.35-0.186,9.645-4.594,9.645-9.988C439.315,51.677,434.832,47.192,429.321,47.192z"/>
			<path fill="#FFFFFF" d="M444.298,35.874c-4.014,0-7.279-3.266-7.279-7.28c0-4.013,3.266-7.279,7.279-7.279
				s7.279,3.266,7.279,7.279C451.578,32.608,448.312,35.874,444.298,35.874z"/>
			<path fill="#FFFFFF" d="M472.419,48.162c-2.821,0-5.117-2.296-5.117-5.118c0-2.821,2.296-5.117,5.117-5.117
				s5.117,2.296,5.117,5.117C477.537,45.866,475.241,48.162,472.419,48.162z"/>
			<path fill="#FFFFFF" d="M471.98,60.335c-1.734,0-3.145-1.412-3.145-3.146c0-1.734,1.41-3.146,3.145-3.146
				s3.146,1.411,3.146,3.146C475.125,58.923,473.714,60.335,471.98,60.335z"/>
			<path fill="#FFFFFF" d="M455.697,86.833c-4.012,0-7.278-3.266-7.278-7.28c0-4.013,3.267-7.279,7.278-7.279
				c4.015,0,7.28,3.266,7.28,7.279C462.977,83.567,459.711,86.833,455.697,86.833z"/>
			<path fill="#FFFFFF" d="M444.186,117.646c-1.803,0-3.269-1.466-3.269-3.269c0-1.802,1.466-3.268,3.269-3.268
				c1.802,0,3.268,1.466,3.268,3.268C447.454,116.18,445.988,117.646,444.186,117.646z"/>
			<path fill="#FFFFFF" d="M444.601,148.104c-2.939,0-5.333-2.393-5.333-5.332c0-2.941,2.393-5.334,5.333-5.334
				c2.94,0,5.333,2.393,5.333,5.334C449.934,145.712,447.542,148.104,444.601,148.104z"/>
			<path fill="#FFFFFF" d="M450.634,171.565c-4.013,0-7.279-3.266-7.279-7.279s3.266-7.279,7.279-7.279
				c4.015,0,7.279,3.266,7.279,7.279S454.649,171.565,450.634,171.565z"/>
			<path fill="#FFFFFF" d="M469.187,174.333l-0.069-0.072c-0.721-0.758-1.103-1.75-1.075-2.796c0.027-1.045,0.459-2.017,1.217-2.735
				c1.551-1.474,3.949-1.443,5.461,0.069l0.07,0.072c0.719,0.759,1.102,1.751,1.074,2.796c-0.026,1.044-0.458,2.016-1.216,2.735
				C473.098,175.875,470.699,175.845,469.187,174.333z"/>
			<path fill="#FFFFFF" d="M487.103,154.503c-3.179,0-5.765-2.586-5.765-5.766s2.586-5.766,5.765-5.766s5.767,2.586,5.767,5.766
				S490.282,154.503,487.103,154.503z"/>
			<path fill="#FFFFFF" d="M515.103,130.263c0-4.15-3.377-7.525-7.526-7.525c-4.147,0-7.525,3.375-7.525,7.525
				c0,4.151,3.378,7.526,7.525,7.526C511.726,137.789,515.103,134.414,515.103,130.263z"/>
			<path fill="#FFFFFF" d="M525.222,142.972c-2.483,0-4.504-2.021-4.504-4.506c0-2.482,2.021-4.503,4.504-4.503
				s4.504,2.021,4.504,4.503C529.726,140.95,527.706,142.972,525.222,142.972z"/>
			<path fill="#FFFFFF" d="M546.462,114.377c-1.525,0-2.766-1.241-2.766-2.767c0-1.525,1.24-2.766,2.766-2.766
				s2.767,1.241,2.767,2.766C549.229,113.136,547.988,114.377,546.462,114.377z"/>
			<path fill="#FFFFFF" d="M566.2,97.965c-3.358,0-6.091-2.732-6.091-6.091c0-3.358,2.732-6.091,6.091-6.091
				c3.359,0,6.091,2.733,6.091,6.091C572.291,95.233,569.559,97.965,566.2,97.965z"/>
			<path fill="#FFFFFF" d="M587.637,61.432c-2.339,0-4.241-1.904-4.241-4.243c0-2.338,1.902-4.242,4.241-4.242
				s4.242,1.904,4.242,4.242C591.879,59.528,589.976,61.432,587.637,61.432z"/>
			<path fill="#FFFFFF" d="M608.692,72.804c-4.304,0-7.807-3.502-7.807-7.807c0-4.306,3.502-7.808,7.807-7.808
				s7.808,3.502,7.808,7.808C616.5,69.301,612.998,72.804,608.692,72.804z"/>
			<path fill="#FFFFFF" d="M601.212,121.657c-4.014,0-7.279-3.266-7.279-7.28c0-4.013,3.266-7.279,7.279-7.279
				s7.279,3.266,7.279,7.279C608.492,118.391,605.226,121.657,601.212,121.657z"/>
			<path fill="#FFFFFF" d="M621.21,159.511c-4.559,0-8.27-3.711-8.27-8.27c0-4.562,3.711-8.27,8.27-8.27
				c4.56,0,8.269,3.708,8.269,8.27C629.479,155.8,625.77,159.511,621.21,159.511z"/>
			<path fill="#FFFFFF" d="M651.547,156.024c-3.6,0-6.527-2.928-6.527-6.525c0-3.601,2.928-6.527,6.527-6.527
				c3.599,0,6.526,2.927,6.526,6.527C658.074,153.097,655.146,156.024,651.547,156.024z"/>
			<path fill="#FFFFFF" d="M663.292,133.894c-2.877,0-5.219-2.341-5.219-5.219c0-2.878,2.342-5.22,5.219-5.22
				c2.879,0,5.22,2.342,5.22,5.22C668.512,131.553,666.171,133.894,663.292,133.894z"/>
			<path fill="#FFFFFF" d="M672.5,108.023c-4.012,0-7.277-3.267-7.277-7.28c0-4.014,3.266-7.28,7.277-7.28
				c4.016,0,7.28,3.266,7.28,7.28C679.78,104.756,676.515,108.023,672.5,108.023z"/>
			<path fill="#FFFFFF" d="M701.536,118.462c-2.251,0-4.084-1.832-4.084-4.084s1.833-4.085,4.084-4.085
				c2.253,0,4.085,1.833,4.085,4.085S703.789,118.462,701.536,118.462z"/>
			<path fill="#FFFFFF" d="M715.262,148.444c-3.019,0-5.473-2.455-5.473-5.473s2.454-5.474,5.473-5.474
				c3.018,0,5.473,2.456,5.473,5.474S718.28,148.444,715.262,148.444z"/>
			<path fill="#FFFFFF" d="M729.366,161.728c-2.639,0-4.784-2.146-4.784-4.783c0-2.639,2.146-4.785,4.784-4.785
				c2.638,0,4.783,2.146,4.783,4.785C734.149,159.582,732.003,161.728,729.366,161.728z"/>
			<path fill="#FFFFFF" d="M751.135,143.233c-4.013,0-7.279-3.266-7.279-7.279s3.267-7.28,7.279-7.28
				c4.015,0,7.279,3.266,7.279,7.28S755.15,143.233,751.135,143.233z"/>
			<path fill="#FFFFFF" d="M773.16,135.954c-4.012,0-7.277-3.266-7.277-7.28s3.266-7.279,7.277-7.279c4.016,0,7.28,3.265,7.28,7.279
				S777.175,135.954,773.16,135.954z"/>
			<path fill="#FFFFFF" d="M786.748,107.647c-4.318,0-7.834-3.515-7.834-7.833s3.516-7.833,7.834-7.833s7.834,3.515,7.834,7.833
				S791.066,107.647,786.748,107.647z"/>
			<path fill="#FFFFFF" d="M833.115,57.188c-1.915,0-3.476-1.559-3.476-3.477s1.561-3.477,3.476-3.477
				c1.92,0,3.479,1.559,3.479,3.477S835.035,57.188,833.115,57.188z"/>
			<path fill="#FFFFFF" d="M843.808,49c-2.827,0-5.129-2.302-5.129-5.13s2.302-5.13,5.129-5.13c2.83,0,5.131,2.302,5.131,5.13
				S846.638,49,843.808,49z"/>
			<path fill="#FFFFFF" d="M864.749,41.625c-3.592,0-6.516-2.923-6.516-6.516c0-3.592,2.924-6.516,6.516-6.516
				c3.593,0,6.515,2.924,6.515,6.516C871.263,38.702,868.341,41.625,864.749,41.625z"/>
			<path fill="#FFFFFF" d="M883.187,46.634c-2.006,0-3.639-1.633-3.639-3.64c0-2.006,1.633-3.64,3.639-3.64
				c2.008,0,3.641,1.634,3.641,3.64C886.828,45,885.195,46.634,883.187,46.634z"/>
			<path fill="#FFFFFF" d="M602.798,81.32c-0.588-0.253-1.234-0.394-1.914-0.394c-2.677,0-4.857,2.179-4.857,4.858
				c0,2.678,2.181,4.857,4.857,4.857c0.025,0,0.049-0.003,0.074-0.003C601.155,87.428,601.778,84.301,602.798,81.32z"/>
			<path fill="#FFFFFF" d="M600.886,139.843L600.886,139.843c-1.727,0-3.129,1.403-3.129,3.129c0,1.725,1.402,3.128,3.128,3.128
				c0.001,0,0.001,0,0.001,0V139.843z"/>
			<path fill="#FFFFFF" d="M686.667,80.106c-0.773,0-1.51,0.157-2.183,0.438c1.273,3.464,2.003,7.137,2.149,10.914
				c0.011,0,0.021,0.002,0.033,0.002c3.131,0,5.678-2.546,5.678-5.677C692.345,82.653,689.798,80.106,686.667,80.106z"/>
			<path fill="#FFFFFF" d="M809.289,92.865c0-2.475-0.592-4.814-1.637-6.889c-0.443-0.123-0.906-0.193-1.388-0.193
				c-2.878,0-5.22,2.342-5.22,5.22c0,2.878,2.342,5.22,5.22,5.22c1.237,0,2.374-0.435,3.269-1.157
				C809.375,94.357,809.289,93.622,809.289,92.865z"/>
			<path fill="#FFFFFF" d="M826.371,77.994c1.967-1.305,3.269-3.537,3.269-6.069c0-4.014-3.265-7.28-7.28-7.28
				c-1.764,0-3.384,0.632-4.645,1.682C821.343,69.569,824.305,73.535,826.371,77.994z"/>
		</g>
	</g>
</g>
</svg>
